<?xml version="1.0" standalone="no"?><!DOCTYPE svg PUBLIC "-//W3C//DTD SVG 1.1//EN" "http://www.w3.org/Graphics/SVG/1.1/DTD/svg11.dtd"><svg t="1613047420485" class="icon" viewBox="0 0 1024 1024" version="1.1" xmlns="http://www.w3.org/2000/svg" p-id="3034" width="16" height="16" xmlns:xlink="http://www.w3.org/1999/xlink"><defs><style type="text/css"></style></defs><path d="M661.504 106.666667a96 96 0 0 1 88.48 58.752L765.653333 202.666667H800c75.488 0 136.885333 60.32 138.624 135.392L938.666667 341.333333v437.333334c0 76.586667-62.08 138.666667-138.666667 138.666666H224c-76.586667 0-138.666667-62.08-138.666667-138.666666V341.333333c0-76.586667 62.08-138.666667 138.666667-138.666666h44.992l15.690667-37.258667a96 96 0 0 1 85.354666-58.688l3.125334-0.053333z m0 64H373.162667a32 32 0 0 0-29.493334 19.584L311.488 266.666667H224a74.666667 74.666667 0 0 0-74.666667 74.666666v437.333334a74.666667 74.666667 0 0 0 74.666667 74.666666h576a74.666667 74.666667 0 0 0 74.666667-74.666666V341.333333a74.666667 74.666667 0 0 0-74.666667-74.666666h-76.832l-32.170667-76.416A32 32 0 0 0 661.504 170.666667zM512 384c94.261333 0 170.666667 76.405333 170.666667 170.666667s-76.405333 170.666667-170.666667 170.666666-170.666667-76.405333-170.666667-170.666666 76.405333-170.666667 170.666667-170.666667z m0 64c-58.912 0-106.666667 47.754667-106.666667 106.666667s47.754667 106.666667 106.666667 106.666666 106.666667-47.754667 106.666667-106.666666-47.754667-106.666667-106.666667-106.666667z m256-64a32 32 0 1 1 0 64 32 32 0 0 1 0-64z" fill="#202530" p-id="3035"></path></svg>