<?xml version="1.0" standalone="no"?><!DOCTYPE svg PUBLIC "-//W3C//DTD SVG 1.1//EN" "http://www.w3.org/Graphics/SVG/1.1/DTD/svg11.dtd"><svg t="1613890403757" class="icon" viewBox="0 0 1040 1024" version="1.1" xmlns="http://www.w3.org/2000/svg" p-id="2447" xmlns:xlink="http://www.w3.org/1999/xlink" width="16.25" height="16"><defs><style type="text/css"></style></defs><path d="M920.05786556 518.96232718c-1.35772811-8.13048964-5.42396556-16.25998587-12.19771894-21.67998166L711.37464474 312.98860756c-14.90722014-14.90622828-39.30067355-14.90622828-55.56065941 0-8.129497 6.77673128-12.19672631 16.25998587-12.19672708 25.74721098 0 9.48623248 4.06722931 18.9734576 12.19672708 25.74621834l130.09080665 121.95634804H409.18781831c-23.0327474 0-39.29670379 14.90722014-39.29670302 36.59017895 0 21.67998167 16.2639564 36.58720182 39.29670302 36.58720258h376.71697367L655.81398533 681.57112108c-8.129497 6.77772391-12.19672631 16.25998587-12.19672708 25.74721098 0 9.48623248 4.06722931 18.96948784 12.19672708 25.74621911 6.77673128 6.77673128 17.61672212 10.83999083 27.10394645 10.83999085 12.19275656 0 20.32324619-4.06325956 27.09997748-10.83999085l196.48550188-188.35600564s0-4.06722931 4.06723009-4.06722931c6.77276076-4.06226692 10.83999083-12.19275656 9.48722433-21.67898904z" p-id="2448" fill="#13227a"></path><path d="M823.84376688 716.80456531c-21.67998167 0-37.93897491 14.90722014-37.9389749 35.23046634v59.62292633c0 14.90622828-10.84396058 24.39345262-25.74721098 24.3934534h-543.38902791c-16.25998587 0-25.74621835-9.48722512-25.74621834-24.3934534V211.35947547c0-14.90722014 10.83999083-24.39345262 25.74621834-24.39345263h543.38902791c16.25998587 0 27.09997671 9.48623248 27.0999767 24.39345263v59.6229271c0 20.32721595 14.90622828 35.23344347 37.94294544 35.23344347 21.67998167 0 37.93996753-14.90622828 37.93996753-35.23344347V211.35947547c0-25.74721099-10.83999083-50.14066437-29.80947867-67.75341596C814.3605123 125.98933738 788.61429318 116.5031049 761.51034673 116.5031049h-543.38902713c-27.09898485 0-52.84619582 9.48623248-71.81568366 27.10295461C127.33217833 161.21881109 116.4921875 185.6122645 116.4921875 211.35947547v600.29848251c0 25.74621835 10.83999083 50.13967175 29.81344844 67.75639387 18.96948784 17.61672212 44.71669883 27.09997671 71.81568366 27.0999767h543.38902712c27.10394723 0 52.85016558-9.48325536 71.82064528-27.0999767 18.96948784-17.61672212 29.80947867-42.01017474 29.80947868-67.75639387v-59.62292633c-1.35276572-20.32324619-17.61275159-35.23046633-39.2967038-35.23046634z" p-id="2449" fill="#13227a"></path></svg>