<?xml version="1.0" standalone="no"?><!DOCTYPE svg PUBLIC "-//W3C//DTD SVG 1.1//EN" "http://www.w3.org/Graphics/SVG/1.1/DTD/svg11.dtd"><svg t="1613399539012" class="icon" viewBox="0 0 1024 1024" version="1.1" xmlns="http://www.w3.org/2000/svg" p-id="2520" xmlns:xlink="http://www.w3.org/1999/xlink" width="16" height="16"><defs><style type="text/css"></style></defs><path d="M304 220.8c-46.933333 0-91.733333 18.133333-125.866667 52.266667-33.066667 33.066667-52.266667 77.866667-52.266666 125.866666 0 11.733333 9.6 21.333333 21.333333 21.333334s21.333333-9.6 21.333333-21.333334c0-36.266667 13.866667-70.4 39.466667-96s59.733333-39.466667 96-39.466666c11.733333 0 21.333333-9.6 21.333333-21.333334-1.066667-11.733333-10.666667-21.333333-21.333333-21.333333zM512 206.933333c56.533333-55.466667 138.666667-87.466667 221.866667-77.866666 120.533333 13.866667 217.6 107.733333 233.6 227.2 6.4 50.133333 0 98.133333-20.266667 142.933333-24.533333 56.533333-88.533333 149.333333-170.666667 228.266667-7.466667 7.466667-16 14.933333-24.533333 22.4s-17.066667 16-25.6 23.466666c-39.466667 36.266667-81.066667 73.6-123.733333 109.866667-14.933333 12.8-28.8 24.533333-40.533334 35.2-4.266667 3.2-8.533333 6.4-11.733333 9.6-2.133333 2.133333-3.2 3.2-4.266667 3.2l-7.466666 6.4c-16 12.8-38.4 12.8-54.4 0l-7.466667-6.4c-1.066667-1.066667-2.133333-2.133333-5.333333-4.266667-4.266667-3.2-8.533333-7.466667-13.866667-11.733333-14.933333-12.8-32-27.733333-50.133333-43.733333-51.2-45.866667-103.466667-91.733333-151.466667-137.6l-5.333333-5.333334C164.266667 646.4 99.2 553.6 74.666667 498.133333c-13.866667-30.933333-20.266667-64-21.333334-99.2C49.066667 252.8 170.666667 128 318.933333 126.933333c74.666667-1.066667 144 28.8 193.066667 80z" fill="#FF9800" p-id="2521"></path></svg>