<?xml version="1.0" standalone="no"?><!DOCTYPE svg PUBLIC "-//W3C//DTD SVG 1.1//EN" "http://www.w3.org/Graphics/SVG/1.1/DTD/svg11.dtd"><svg t="1613384669788" class="icon" viewBox="0 0 1024 1024" version="1.1" xmlns="http://www.w3.org/2000/svg" p-id="6292" xmlns:xlink="http://www.w3.org/1999/xlink" width="16" height="16"><defs><style type="text/css"></style></defs><path d="M875.728507 69.502262c-9.266968-9.266968-23.167421-9.266968-32.434389 0l-759.891403 509.683258c-9.266968 9.266968-13.900452 18.533937-13.900453 32.43439 0 13.900452 9.266968 23.167421 23.167421 27.800904L291.909502 695.022624c9.266968 0 13.900452 0 23.167421-4.633484s13.900452-13.900452 13.900453-23.167421c4.633484-18.533937-4.633484-37.067873-23.167421-41.701357l-129.737557-37.067873 644.054299-430.914027L741.357466 745.99095l-287.276018-78.769231 143.638009-176.072398c9.266968-13.900452 9.266968-32.434389 0-46.334841-4.633484-4.633484-13.900452-9.266968-18.533937-9.266969-9.266968 0-13.900452 4.633484-23.16742 9.266969l-171.438914 208.506787c-9.266968 4.633484-13.900452 18.533937-13.900453 27.800905V954.497738c0 13.900452 0 13.900452 4.633484 18.533936h4.633484s4.633484 0 4.633485 4.633484c4.633484 0 9.266968 4.633484 9.266968 4.633485 9.266968 0 13.900452-4.633484 23.167421-9.266969l101.936651-125.104072c9.266968-13.900452 9.266968-32.434389 0-46.334842-4.633484-4.633484-13.900452-9.266968-18.533936-9.266968-9.266968 0-13.900452 4.633484-23.167421 9.266968l-50.968326 60.235294v-129.737556l333.61086 92.669683c9.266968 4.633484 18.533937 0 23.167421-4.633484 4.633484-4.633484 13.900452-13.900452 13.900452-23.167421l92.669683-695.022624c0-9.266968-4.633484-23.167421-13.900452-32.43439z" p-id="6293"></path></svg>