<?xml version="1.0" standalone="no"?><!DOCTYPE svg PUBLIC "-//W3C//DTD SVG 1.1//EN" "http://www.w3.org/Graphics/SVG/1.1/DTD/svg11.dtd"><svg t="1613050895470" class="icon" viewBox="0 0 1024 1024" version="1.1" xmlns="http://www.w3.org/2000/svg" p-id="8029" xmlns:xlink="http://www.w3.org/1999/xlink" width="16" height="16"><defs><style type="text/css"></style></defs><path d="M836.4921875 117.98632812H190.3203125c-38.93554688 0-70.6640625 31.72851563-70.6640625 70.66406251v646.171875c0 38.93554688 31.640625 70.6640625 70.6640625 70.6640625h646.08398438c38.93554688 0 70.75195313-31.72851563 70.75195312-70.6640625V188.65039062c0-38.93554688-31.640625-70.6640625-70.6640625-70.66406249z m43.85742188 716.74804688c0 24.2578125-19.77539063 44.03320313-44.03320313 44.03320313H190.23242187c-24.2578125 0-44.03320313-19.77539063-44.03320312-44.03320313V188.5625c0-24.16992188 19.77539063-43.9453125 44.03320313-43.9453125H836.31640625c24.2578125 0 44.03320313 19.6875 44.03320313 43.9453125v646.171875z" fill="#1A192B" p-id="8030"></path><path d="M678.11328125 499.51953125H524.56835938V345.79882812c0-7.3828125-5.9765625-13.359375-13.35937501-13.35937499-7.3828125 0-13.359375 5.9765625-13.35937499 13.359375v153.72070312H344.12890625c-7.3828125 0-13.359375 5.9765625-13.359375 13.359375 0 7.3828125 5.9765625 13.359375 13.359375 13.359375h153.72070313v153.54492188c0 7.3828125 5.9765625 13.359375 13.35937499 13.35937499 7.3828125 0 13.27148438-5.9765625 13.359375-13.359375V526.23828125H678.11328125c7.3828125 0 13.359375-5.9765625 13.359375-13.359375 0-7.3828125-5.9765625-13.359375-13.359375-13.359375z" fill="#1A192B" p-id="8031"></path></svg>